HIERARCHY
ROOT root
{
	OFFSET 0.000000 0.000000 0.000000
	CHANNELS 6 Xposition Yposition Zposition Zrotation Yrotation Xrotation
	JOINT lhip
	{
		OFFSET 0.058581 -0.082280 -0.017664
		CHANNELS 3 Zrotation Yrotation Xrotation
		JOINT lknee
		{
			OFFSET 0.043451 -0.386469 0.008037
			CHANNELS 3 Zrotation Yrotation Xrotation
			JOINT lankle
			{
				OFFSET -0.014790 -0.426874 -0.037428
				CHANNELS 3 Zrotation Yrotation Xrotation
				JOINT ltoe
				{
					OFFSET 0.041054 -0.060286 0.122042
					CHANNELS 3 Zrotation Yrotation Xrotation
					End Site
					{
						OFFSET 0.000000 0.000000 0.000000
					}
				}
			}
		}
	}
	JOINT rhip
	{
		OFFSET -0.060310 -0.090513 -0.013543
		CHANNELS 3 Zrotation Yrotation Xrotation
		JOINT rknee
		{
			OFFSET -0.043257 -0.383688 -0.004843
			CHANNELS 3 Zrotation Yrotation Xrotation
			JOINT rankle
			{
				OFFSET 0.019056 -0.420046 -0.034562
				CHANNELS 3 Zrotation Yrotation Xrotation
				JOINT rtoe
				{
					OFFSET -0.034840 -0.062106 0.130323
					CHANNELS 3 Zrotation Yrotation Xrotation
					End Site
					{
						OFFSET 0.000000 0.000000 0.000000
					}
				}
			}
		}
	}
	JOINT lowerback
	{
		OFFSET 0.004439 0.124404 -0.038385
		CHANNELS 3 Zrotation Yrotation Xrotation
		JOINT upperback
		{
			OFFSET 0.004488 0.137956 0.026820
			CHANNELS 3 Zrotation Yrotation Xrotation
			JOINT chest
			{
				OFFSET -0.002265 0.056032 0.002855
				CHANNELS 3 Zrotation Yrotation Xrotation
				JOINT lowerneck
				{
					OFFSET -0.013390 0.211636 -0.033468
					CHANNELS 3 Zrotation Yrotation Xrotation
					JOINT upperneck
					{
						OFFSET 0.010113 0.088937 0.050410
						CHANNELS 3 Zrotation Yrotation Xrotation
						End Site
						{
							OFFSET 0.000000 0.000000 0.000000
						}
					}
				}
				JOINT lclavicle
				{
					OFFSET 0.071702 0.114000 -0.018898
					CHANNELS 3 Zrotation Yrotation Xrotation
					JOINT lshoulder
					{
						OFFSET 0.122921 0.045205 -0.019046
						CHANNELS 3 Zrotation Yrotation Xrotation
						JOINT lelbow
						{
							OFFSET 0.255332 -0.015649 -0.022946
							CHANNELS 3 Zrotation Yrotation Xrotation
							JOINT lwrist
							{
								OFFSET 0.265709 0.012698 -0.007375
								CHANNELS 3 Zrotation Yrotation Xrotation
								End Site
								{
									OFFSET 0.000000 0.000000 0.000000
								}
							}
						}
					}
				}
				JOINT rclavicle
				{
					OFFSET -0.082954 0.112472 -0.023707
					CHANNELS 3 Zrotation Yrotation Xrotation
					JOINT rshoulder
					{
						OFFSET -0.113228 0.046853 -0.008472
						CHANNELS 3 Zrotation Yrotation Xrotation
						JOINT relbow
						{
							OFFSET -0.260127 -0.014369 -0.031269
							CHANNELS 3 Zrotation Yrotation Xrotation
							JOINT rwrist
							{
								OFFSET -0.269108 0.006794 -0.006027
								CHANNELS 3 Zrotation Yrotation Xrotation
								End Site
								{
									OFFSET 0.000000 0.000000 0.000000
								}
							}
						}
					}
				}
			}
		}
	}
}
MOTION
Frames: 5
Frame Time: 0.033333
0.032653 -0.176217 1.123517 12.633727 2.729849 -83.692901 6.166144 6.055241 -28.350001 -4.411901 7.367999 27.361150 4.230408 14.361907 -10.255039 0.000000 -0.000000 0.000000 -19.171971 -8.481887 24.628986 8.938351 19.444511 41.251943 25.598788 -7.160481 38.974626 0.000000 -0.000000 0.000000 -2.789016 6.389413 -2.912684 0.979167 -8.265063 -16.055345 2.514809 3.795623 -6.323593 -8.014659 -7.923278 -26.000446 4.979797 1.004500 -14.661442 28.861821 -16.699978 -29.540837 22.817268 -17.264263 -31.812092 21.201299 -24.560604 -31.217044 33.514286 -21.664460 3.352892 -26.479718 16.180470 -31.988838 -23.001188 24.668042 -33.166320 -26.422548 25.203176 -36.364941 -20.471602 15.544990 1.791067 
0.031124 -0.188343 1.102474 13.548456 3.099656 -82.143794 7.171212 5.877137 -31.795591 -2.445045 7.289164 16.491862 2.766677 15.338527 -3.690772 0.000000 -0.000000 0.000000 -21.670574 -7.737972 27.014165 10.612764 22.006656 46.711372 25.435724 -8.722184 39.009697 0.000000 -0.000000 0.000000 -2.965222 7.077665 -4.407752 1.081211 -7.885419 -16.947117 2.503549 4.343708 -5.250034 -8.481755 -7.880067 -26.305653 4.925414 0.760040 -14.132536 33.069718 -15.502525 -30.804305 23.237604 -19.666384 -30.726374 13.614844 -14.782888 -27.144220 50.970663 -23.955127 -2.118182 -30.287471 14.995839 -34.337904 -27.617600 25.025490 -36.115909 -17.446282 13.672236 -32.711068 -23.587019 16.182479 2.585899 
0.028270 -0.202058 1.075465 14.882626 3.955670 -80.880490 8.841043 4.594447 -34.336968 -1.030360 9.089452 7.865077 1.726008 14.463896 -0.278754 0.000000 -0.000000 0.000000 -23.780175 -6.410378 28.362780 11.063841 22.969811 52.951168 25.206974 -8.540226 39.543138 0.000000 -0.000000 0.000000 -2.947897 7.342268 -6.391069 0.375471 -7.640487 -16.637881 1.942603 4.320852 -6.513885 -8.913916 -8.399322 -24.409199 5.236399 3.071630 -12.912051 30.319325 -17.591422 -30.691350 21.795955 -22.509457 -31.018667 17.742761 -15.521427 -30.085046 58.610803 -26.625801 -2.695127 -30.162585 16.818330 -33.212256 -27.949333 25.948324 -35.900206 -15.631277 10.593079 -31.851756 -26.143132 19.079675 4.250822 
0.024357 -0.216404 1.052102 16.197976 4.652484 -79.717434 11.533844 3.587128 -38.345328 -1.338489 7.945707 5.581026 1.055913 11.929623 -1.244272 0.000000 -0.000000 0.000000 -25.476506 -5.237352 29.042512 12.781976 23.076289 60.964752 25.067731 -8.446071 39.690348 0.000000 -0.000000 0.000000 -4.186855 7.420916 -8.468621 1.061626 -7.967238 -15.933521 1.788841 4.588490 -8.147495 -8.767193 -8.980286 -23.287836 5.614165 3.994108 -12.412342 26.103834 -18.701400 -29.196069 20.330864 -21.379645 -28.498800 20.999301 -23.340872 -32.266499 58.940162 -27.293372 -1.385381 -25.584874 19.403439 -30.160473 -26.230255 24.815729 -33.630023 -20.324941 20.177361 -36.621589 -26.244777 19.892443 3.944689 
0.021493 -0.230612 1.037962 16.494839 5.157954 -79.618470 14.177706 2.553774 -42.996519 -2.030040 5.421613 8.287231 0.182212 10.558994 -0.142076 0.000000 -0.000000 0.000000 -27.191397 -4.684113 30.880039 15.315680 22.116274 69.091149 25.544535 -8.117687 39.790933 0.000000 -0.000000 0.000000 -5.052285 8.538900 -9.136851 1.287724 -8.142156 -15.348343 1.389810 4.357805 -8.412781 -8.532593 -9.326693 -23.389946 5.605204 3.264845 -13.137038 24.331742 -18.830747 -28.154558 18.910046 -20.942419 -26.784456 22.615830 -26.958980 -33.541109 60.107483 -26.849357 -1.826360 -23.772309 19.016084 -29.406267 -24.884958 24.304417 -31.016537 -22.088674 25.648274 -37.855537 -27.193665 19.468170 3.366521 
